<svg id="Capa_1" data-name="Capa 1" xmlns="http://www.w3.org/2000/svg" viewBox="0 0 94.76 184.32"><defs><style>.cls-1{fill:none;stroke-width:5px;}.cls-1,.cls-2{stroke:#fff;stroke-miterlimit:10;}.cls-2{fill:#fff;}</style></defs><path class="cls-1" d="M53.15,29.21c-3.54,5-4,15.07,1.83,21.09,1.82,1.86,3.84,3.53,5.71,5.34a32.57,32.57,0,0,1,4.14,4.42c2.31,3.34,1.7,6.6-1.45,9.22-2.32,1.92-4.8,3.67-7,5.76-4.12,4-5.74,9.14-5.9,14.77-.21,7.09,1.39,13.6,6.61,18.74,2.18,2.15,4.67,4,6.95,6s2.67,4.3,1.1,7A16.69,16.69,0,0,1,63,124.51c-2,2.21-4.33,4.22-6.26,6.53a35.62,35.62,0,0,0-4.92,7.08,15.37,15.37,0,0,0,3.26,17.3,9.86,9.86,0,0,0,1.12.83,80.7,80.7,0,0,1-46.5,17.12A82,82,0,0,0,88.17,91.49,82,82,0,0,0,13.1,9.81,80.67,80.67,0,0,1,55.72,26.29,35.31,35.31,0,0,0,53.15,29.21Z"/><path class="cls-2" d="M8.68,176.29h.23a83.22,83.22,0,0,0,48-17.68,10.38,10.38,0,0,1-1.15-.85,15.88,15.88,0,0,1-3.37-17.87,36.16,36.16,0,0,1,5.09-7.31c2-2.39,4.34-4.47,6.46-6.74a17,17,0,0,0,2.24-3c1.62-2.78,1.27-5-1.14-7.22s-4.92-4-7.17-6.25c-5.39-5.31-7-12-6.83-19.35.17-5.82,1.84-11.12,6.1-15.26,2.22-2.16,4.79-4,7.18-5.94,3.26-2.71,3.88-6.07,1.49-9.53a33.36,33.36,0,0,0-4.27-4.56c-1.92-1.87-4-3.59-5.89-5.51C49.58,43,50.11,32.58,53.76,27.4a37.67,37.67,0,0,1,2.66-3,83.25,83.25,0,0,0-44-17h-.18c-.54-.05-1.09-.09-1.63-.12l-.57,0L8.76,7.14,8,7.12l-1,0H5l-1.29,0H3.12V51.92c.72,0,1.43-.06,2.16-.06a39.86,39.86,0,0,1,0,79.72c-.73,0-1.44,0-2.16-.06v44.82c.69,0,1.38,0,2.08,0H6l1.09,0Z"/></svg>