<svg id="Capa_1" data-name="Capa 1" xmlns="http://www.w3.org/2000/svg" viewBox="0 0 808.93 200.88"><defs><style>.cls-1{font-size:231.39px;font-family:Poppins-Regular, Poppins;}.cls-1,.cls-3{fill:#212529;}.cls-1,.cls-2,.cls-3{stroke:#212529;stroke-miterlimit:10;}.cls-2{fill:none;stroke-width:5px;}</style></defs><text class="cls-1" transform="translate(116.75 184.79)">onata</text><path class="cls-2" d="M68.64,39.29c-3.55,5-4,15.07,1.83,21.09,1.82,1.86,3.84,3.53,5.71,5.34a31.87,31.87,0,0,1,4.13,4.42c2.32,3.34,1.71,6.6-1.44,9.22-2.32,1.92-4.81,3.67-7,5.76-4.13,4-5.74,9.14-5.9,14.77-.21,7.09,1.39,13.6,6.61,18.74,2.18,2.15,4.66,4,6.94,6.05s2.68,4.3,1.11,7a16.69,16.69,0,0,1-2.17,2.91c-2.06,2.21-4.34,4.22-6.26,6.53a35.67,35.67,0,0,0-4.93,7.08,15.39,15.39,0,0,0,3.27,17.3,9,9,0,0,0,1.12.83,80.73,80.73,0,0,1-46.5,17.12A82,82,0,0,0,28.58,19.89,80.61,80.61,0,0,1,71.2,36.37,35.18,35.18,0,0,0,68.64,39.29Z"/><path class="cls-3" d="M24.17,186.37h.22a83.28,83.28,0,0,0,48-17.68,10.38,10.38,0,0,1-1.15-.85A15.9,15.9,0,0,1,67.88,150,36.57,36.57,0,0,1,73,142.65c2-2.39,4.34-4.47,6.46-6.74a17.06,17.06,0,0,0,2.25-3c1.62-2.78,1.26-5-1.14-7.22s-4.92-4-7.18-6.25c-5.39-5.31-7-12-6.83-19.35.17-5.82,1.84-11.12,6.1-15.26,2.22-2.16,4.79-4,7.19-5.94,3.25-2.71,3.88-6.07,1.49-9.53A34,34,0,0,0,77,64.78c-1.93-1.87-4-3.59-5.9-5.51-6.07-6.22-5.55-16.61-1.89-21.79a37.53,37.53,0,0,1,2.65-3,83.22,83.22,0,0,0-44-17h-.18c-.55-.05-1.09-.09-1.64-.12l-.57,0-1.26-.07-.81,0-1,0H20.52l-1.29,0h-.62V62c.71,0,1.43-.06,2.15-.06a39.86,39.86,0,0,1,0,79.72c-.72,0-1.44,0-2.15-.06v44.82c.69,0,1.38,0,2.07,0h.81l1.1,0Z"/></svg>